<svg width="195" height="160" viewBox="0 0 195 160" fill="none" xmlns="http://www.w3.org/2000/svg">
<path d="M61.0588 131.548H59.0175L58.0377 154.886C58.0128 155.715 57.6847 156.506 57.1158 157.108C56.5468 157.711 55.7766 158.083 54.9513 158.155L34.2935 159.985C33.8057 160.032 33.3138 159.971 32.8518 159.808C32.3898 159.645 31.9687 159.384 31.6176 159.042C31.2666 158.7 30.994 158.285 30.8188 157.827C30.6436 157.37 30.5699 156.879 30.6028 156.39L31.8602 132.202L3.46187 132.856C2.96276 132.868 2.46719 132.769 2.01075 132.566C1.55431 132.364 1.14835 132.063 0.822029 131.685C0.495708 131.307 0.257132 130.861 0.123446 130.379C-0.0102411 129.898 -0.0357202 129.393 0.0488395 128.9L7.90371 82.2892C8.03308 81.5107 8.43037 80.8019 9.02681 80.2855C9.62325 79.7692 10.3813 79.4778 11.1698 79.4618H27.2551C27.7451 79.4705 28.2274 79.5857 28.6685 79.7995C29.1096 80.0132 29.499 80.3204 29.8097 80.6997C30.1204 81.0791 30.3449 81.5215 30.4678 81.9963C30.5906 82.4711 30.6088 82.967 30.5212 83.4496L24.6912 116.741L32.7258 116.496L34.8814 73.5455C34.911 72.6683 35.2802 71.8369 35.911 71.2269C36.5417 70.617 37.3847 70.2764 38.2617 70.2769H57.8581C58.3146 70.2764 58.7665 70.3686 59.1866 70.5477C59.6066 70.7268 59.986 70.9893 60.3019 71.3192C60.6177 71.6491 60.8636 72.0396 61.0246 72.4672C61.1855 72.8947 61.2583 73.3505 61.2384 73.807L59.6054 115.532H60.7975C61.2469 115.507 61.6965 115.573 62.12 115.725C62.5436 115.877 62.9326 116.112 63.2642 116.417C63.5957 116.721 63.8632 117.089 64.051 117.498C64.2387 117.907 64.343 118.35 64.3575 118.8V128.132C64.3664 129.021 64.0253 129.878 63.408 130.517C62.7907 131.156 61.9468 131.527 61.0588 131.548Z" fill="#515570"/>
<path d="M191.701 61.2712H189.66L188.68 84.6095C188.655 85.4382 188.327 86.2288 187.758 86.8314C187.189 87.434 186.419 87.8065 185.594 87.8782L164.936 89.7086C164.448 89.7547 163.956 89.6942 163.494 89.5312C163.032 89.3682 162.611 89.1067 162.26 88.7647C161.909 88.4227 161.636 88.0085 161.461 87.5506C161.286 87.0928 161.212 86.6023 161.245 86.1131L162.503 61.8759L134.104 62.5133C133.605 62.5253 133.11 62.4266 132.653 62.2242C132.197 62.0217 131.791 61.7206 131.464 61.3425C131.138 60.9643 130.899 60.5185 130.766 60.0371C130.632 59.5557 130.607 59.0506 130.691 58.5582L138.546 11.9633C138.675 11.1848 139.073 10.476 139.669 9.95965C140.266 9.44331 141.024 9.15193 141.812 9.13593H157.897C158.387 9.1446 158.87 9.25981 159.311 9.47357C159.752 9.68732 160.141 9.99451 160.452 10.3739C160.763 10.7532 160.987 11.1956 161.11 11.6704C161.233 12.1453 161.251 12.6411 161.163 13.1237L155.334 46.4641L163.368 46.219L165.524 3.26867C165.553 2.3914 165.923 1.56001 166.553 0.950096C167.184 0.340182 168.027 -0.000500515 168.904 1.51281e-06H188.5C188.957 -0.000430576 189.409 0.0917013 189.829 0.27084C190.249 0.449979 190.628 0.712412 190.944 1.04231C191.26 1.3722 191.506 1.76272 191.667 2.1903C191.828 2.61789 191.901 3.07367 191.881 3.53016L190.248 45.1894H191.44C191.895 45.1651 192.349 45.233 192.777 45.3891C193.205 45.5451 193.597 45.7861 193.929 46.0974C194.262 46.4088 194.528 46.7842 194.712 47.2011C194.896 47.618 194.994 48.0677 195 48.5234V57.8554C195.009 58.7444 194.668 59.601 194.05 60.2402C193.433 60.8794 192.589 61.2498 191.701 61.2712Z" fill="#515570"/>
<path d="M117.153 67.5469L118.28 68.3314C122.985 71.7984 126.28 76.85 127.559 82.556C128.837 88.262 128.013 94.238 125.237 99.3837C122.807 103.917 118.677 107.3 113.756 108.786C108.834 110.273 103.524 109.742 98.9941 107.31C95.3695 105.363 92.6659 102.056 91.4777 98.1144C90.2895 94.1731 90.714 89.9208 92.6579 86.2927C93.4276 84.8545 94.4729 83.5822 95.734 82.5484C96.9951 81.5146 98.4473 80.7396 100.008 80.2676C101.568 79.7956 103.206 79.6358 104.828 79.7975C106.451 79.9592 108.025 80.4392 109.462 81.2099C111.78 82.4567 113.509 84.5739 114.269 87.0962C115.028 89.6184 114.756 92.3392 113.512 94.6605C113.021 95.5817 112.354 96.3971 111.548 97.06C110.742 97.7229 109.814 98.2204 108.816 98.5239C107.818 98.8275 106.77 98.9312 105.732 98.8292C104.694 98.7271 103.686 98.4213 102.766 97.9292C102.03 97.5346 101.379 96.9988 100.851 96.3523C100.322 95.7058 99.9253 94.9613 99.6842 94.1613C99.443 93.3614 99.3618 92.5218 99.4451 91.6904C99.5285 90.859 99.7747 90.0523 100.17 89.3162C100.807 88.1287 101.889 87.243 103.178 86.8538C104.467 86.4645 105.858 86.6037 107.045 87.2406C107.99 87.7556 108.692 88.6245 108.998 89.6568C109.304 90.6892 109.189 91.8008 108.678 92.7483C108.267 93.5069 107.572 94.0718 106.746 94.3198C105.92 94.5678 105.029 94.4788 104.269 94.0721C103.967 93.9109 103.699 93.6915 103.482 93.4265C103.265 93.1615 103.103 92.8561 103.004 92.528C102.906 92.1999 102.873 91.8556 102.908 91.5147C102.942 91.1739 103.044 90.8433 103.207 90.542C103.329 90.2966 103.498 90.0777 103.704 89.8979C103.91 89.7182 104.15 89.581 104.41 89.4944C104.669 89.4078 104.943 89.3735 105.216 89.3934C105.489 89.4133 105.755 89.4871 106 89.6104C106.196 89.7101 106.37 89.8484 106.511 90.017C106.653 90.1857 106.759 90.3812 106.823 90.5918C106.887 90.8025 106.908 91.0239 106.884 91.2428C106.861 91.4617 106.793 91.6736 106.686 91.8658" stroke="#00ADFE" stroke-width="4" stroke-miterlimit="10" stroke-linecap="round"/>
<path d="M84.7702 126.971C77.5831 121.515 72.578 113.671 70.656 104.85C68.734 96.0291 70.0213 86.8114 74.2862 78.8561C77.5854 72.7086 82.9026 67.8884 89.3405 65.2087C95.7784 62.5291 102.943 62.1541 109.625 64.1471" stroke="#00ADFE" stroke-width="3" stroke-miterlimit="10" stroke-linecap="round"/>
<path d="M122.134 134.718C115.06 136.249 107.73 136.131 100.709 134.375" stroke="#00ADFE" stroke-width="3" stroke-miterlimit="10" stroke-linecap="round" stroke-dasharray="0.09 8.71"/>
<path d="M153.88 110.807C151.067 116.069 147.282 120.749 142.727 124.601" stroke="#00ADFE" stroke-width="3" stroke-miterlimit="10" stroke-linecap="round"/>
<path d="M95.4179 117.296C89.76 114.254 85.5398 109.09 83.6842 102.936C81.8286 96.7831 82.4895 90.1443 85.5217 84.4783C87.9516 79.9445 92.0815 76.5625 97.0029 75.076C101.924 73.5895 107.234 74.1203 111.765 76.5518C115.385 78.4985 118.085 81.8033 119.273 85.7407C120.461 89.6781 120.039 93.9264 118.101 97.5529C116.543 100.455 113.898 102.618 110.747 103.569C107.596 104.519 104.197 104.177 101.297 102.619C98.9782 101.373 97.2491 99.2554 96.4897 96.7331C95.7302 94.2109 96.0026 91.4901 97.2469 89.1688C97.7375 88.2476 98.4047 87.4323 99.2105 86.7693C100.016 86.1064 100.945 85.6089 101.943 85.3054C102.941 85.0018 103.988 84.8981 105.027 85.0001C106.065 85.1022 107.072 85.408 107.992 85.9001C108.728 86.2947 109.379 86.8305 109.908 87.477C110.437 88.1235 110.833 88.868 111.074 89.668C111.316 90.4679 111.397 91.3075 111.313 92.1389C111.23 92.9703 110.984 93.777 110.589 94.5131C109.952 95.7006 108.87 96.5863 107.581 96.9755C106.291 97.3648 104.9 97.2256 103.714 96.5887C102.769 96.0737 102.066 95.2048 101.76 94.1725C101.454 93.1401 101.569 92.0285 102.081 91.081C102.492 90.3224 103.187 89.7575 104.013 89.5095C104.839 89.2615 105.729 89.3505 106.49 89.7572C106.792 89.9184 107.059 90.1378 107.276 90.4028C107.493 90.6678 107.656 90.9732 107.754 91.3013C107.853 91.6294 107.886 91.9737 107.851 92.3146C107.816 92.6554 107.714 92.986 107.551 93.2873C107.423 93.5299 107.247 93.7446 107.035 93.9189C106.823 94.0932 106.579 94.2236 106.316 94.3027C106.053 94.3817 105.777 94.4078 105.505 94.3794C105.232 94.351 104.967 94.2687 104.726 94.1372C104.53 94.0375 104.356 93.8992 104.215 93.7306C104.073 93.5619 103.967 93.3664 103.903 93.1557C103.839 92.9451 103.818 92.7237 103.842 92.5048C103.865 92.2858 103.933 92.074 104.04 91.8818" stroke="#00ADFE" stroke-width="4" stroke-miterlimit="10" stroke-linecap="round"/>
<path d="M92.9355 48.3113C102.583 47.1471 112.353 48.9966 120.909 53.6066C125.295 55.954 129.176 59.1434 132.33 62.9927C135.484 66.8419 137.849 71.2755 139.289 76.0399C140.73 80.8043 141.219 85.8061 140.727 90.7596C140.235 95.713 138.773 100.521 136.423 104.908C133.454 110.45 128.837 114.932 123.21 117.731C117.584 120.53 111.227 121.509 105.02 120.533" stroke="#00ADFE" stroke-width="3" stroke-miterlimit="10" stroke-linecap="round"/>
<path d="M71.7061 56.384C73.7447 54.9758 75.8905 53.7299 78.1239 52.6577" stroke="#00ADFE" stroke-width="4" stroke-miterlimit="10" stroke-linecap="round" stroke-dasharray="0.09 8.92"/>
<path d="M105.053 103.976C111.889 103.976 117.431 98.539 117.431 91.8326C117.431 85.1261 111.889 79.6895 105.053 79.6895C98.2163 79.6895 92.6743 85.1261 92.6743 91.8326C92.6743 98.539 98.2163 103.976 105.053 103.976Z" fill="white" stroke="#393C54" stroke-width="6" stroke-linecap="round" stroke-linejoin="round"/>
<path d="M83.4967 75.4902C87.1043 75.4902 90.0288 72.5633 90.0288 68.9529C90.0288 65.3424 87.1043 62.4155 83.4967 62.4155C79.8891 62.4155 76.9646 65.3424 76.9646 68.9529C76.9646 72.5633 79.8891 75.4902 83.4967 75.4902Z" fill="#F8DC25"/>
<path d="M58.0539 111.167L58.8215 109.206C58.8679 109.081 58.9514 108.973 59.0609 108.897C59.1704 108.821 59.3005 108.78 59.4338 108.78C59.5672 108.78 59.6973 108.821 59.8068 108.897C59.9163 108.973 59.9998 109.081 60.0462 109.206L60.8138 111.167C61.1119 111.903 61.5546 112.572 62.1156 113.133C62.6766 113.694 63.3446 114.138 64.0798 114.436L66.0395 115.204C66.1645 115.25 66.2723 115.334 66.3484 115.444C66.4245 115.553 66.4654 115.683 66.4654 115.817C66.4654 115.95 66.4245 116.081 66.3484 116.19C66.2723 116.3 66.1645 116.383 66.0395 116.43L64.0798 117.198C63.3446 117.496 62.6766 117.939 62.1156 118.501C61.5546 119.062 61.1119 119.731 60.8138 120.467L60.0462 122.428C59.9998 122.553 59.9163 122.661 59.8068 122.737C59.6973 122.813 59.5672 122.854 59.4338 122.854C59.3005 122.854 59.1704 122.813 59.0609 122.737C58.9514 122.661 58.8679 122.553 58.8215 122.428L58.0539 120.467C57.7558 119.731 57.3131 119.062 56.7521 118.501C56.1911 117.939 55.5231 117.496 54.7879 117.198L52.8282 116.43C52.7032 116.383 52.5954 116.3 52.5193 116.19C52.4431 116.081 52.4023 115.95 52.4023 115.817C52.4023 115.683 52.4431 115.553 52.5193 115.444C52.5954 115.334 52.7032 115.25 52.8282 115.204L54.7879 114.436C55.5231 114.138 56.1911 113.694 56.7521 113.133C57.3131 112.572 57.7558 111.903 58.0539 111.167Z" fill="#F8DC25"/>
<path d="M146.826 57.136L147.593 55.1748C147.64 55.0497 147.723 54.9418 147.833 54.8656C147.942 54.7894 148.072 54.7485 148.206 54.7485C148.339 54.7485 148.469 54.7894 148.579 54.8656C148.688 54.9418 148.772 55.0497 148.818 55.1748L149.586 57.136C149.884 57.8718 150.327 58.5403 150.888 59.1018C151.449 59.6632 152.117 60.1063 152.852 60.4047L154.811 61.1728C154.936 61.2192 155.044 61.3028 155.12 61.4124C155.197 61.522 155.237 61.6522 155.237 61.7857C155.237 61.9191 155.197 62.0494 155.12 62.1589C155.044 62.2685 154.936 62.3521 154.811 62.3985L152.852 63.1667C152.117 63.465 151.449 63.9081 150.888 64.4696C150.327 65.031 149.884 65.6995 149.586 66.4353L148.818 68.3965C148.772 68.5217 148.688 68.6296 148.579 68.7058C148.469 68.782 148.339 68.8228 148.206 68.8228C148.072 68.8228 147.942 68.782 147.833 68.7058C147.723 68.6296 147.64 68.5217 147.593 68.3965L146.826 66.6151C146.528 65.8793 146.085 65.2108 145.524 64.6493C144.963 64.0879 144.295 63.6448 143.56 63.3465L141.6 62.5783C141.475 62.5319 141.367 62.4483 141.291 62.3387C141.215 62.2291 141.174 62.0989 141.174 61.9654C141.174 61.832 141.215 61.7017 141.291 61.5922C141.367 61.4826 141.475 61.399 141.6 61.3526L143.56 60.5844C144.312 60.2659 144.991 59.7952 145.553 59.2017C146.115 58.6083 146.548 57.905 146.826 57.136Z" fill="#F8DC25"/>
<path d="M149.455 137.153C150.898 137.153 152.067 135.982 152.067 134.538C152.067 133.094 150.898 131.923 149.455 131.923C148.012 131.923 146.842 133.094 146.842 134.538C146.842 135.982 148.012 137.153 149.455 137.153Z" fill="#F8DC25"/>
<path d="M61.9412 84.871C63.3843 84.871 64.5541 83.7002 64.5541 82.256C64.5541 80.8119 63.3843 79.6411 61.9412 79.6411C60.4982 79.6411 59.3284 80.8119 59.3284 82.256C59.3284 83.7002 60.4982 84.871 61.9412 84.871Z" fill="#F8DC25"/>
<path d="M132.912 49.5692C134.355 49.5692 135.525 48.3985 135.525 46.9543C135.525 45.5101 134.355 44.3394 132.912 44.3394C131.469 44.3394 130.299 45.5101 130.299 46.9543C130.299 48.3985 131.469 49.5692 132.912 49.5692Z" fill="#F8DC25"/>
</svg>
