<svg width="255" height="80" viewBox="0 0 255 80" fill="none" xmlns="http://www.w3.org/2000/svg">
<circle cx="105" cy="40" r="40" fill="#3FCACA"/>
<path d="M125.472 38.5484V38.15V38.0902C125.467 38.0369 125.467 37.983 125.472 37.9291V36.8778C125.479 36.7029 125.412 36.5326 125.289 36.4117C125.234 36.3485 125.166 36.2992 125.09 36.267H125.04C124.977 36.2591 124.913 36.2591 124.849 36.267H124.75C124.675 36.2552 124.6 36.2552 124.526 36.267C124.47 36.2913 124.42 36.3255 124.376 36.3689L124.327 36.4196V36.4202C124.292 36.4616 124.261 36.507 124.236 36.5556V36.6234C124.205 36.699 124.189 36.7792 124.186 36.8607C124.186 37.2591 124.137 37.6326 124.112 37.9633C124.037 38.9133 123.979 39.6083 124.294 39.9219H124.293C124.427 40.0613 124.609 40.1402 124.8 40.1428C124.888 40.1428 124.975 40.1257 125.057 40.0915C125.131 40.0593 125.198 40.0133 125.256 39.9561L125.305 39.8969H125.306C125.324 39.8805 125.338 39.8601 125.347 39.8371C125.4 39.7352 125.428 39.6221 125.43 39.5064C125.448 39.2638 125.448 39.0199 125.43 38.7773L125.472 38.5484ZM125.265 39.0908V39.4044V39.4551L125.264 39.4557C125.27 39.5149 125.27 39.5747 125.264 39.6339C125.266 39.6563 125.266 39.6793 125.264 39.7016V39.7522L125.214 39.8029L125.09 39.8877L124.916 39.8883H124.559C124.506 39.8601 124.456 39.8259 124.41 39.7864C124.345 39.7115 124.299 39.6214 124.277 39.5234C124.21 39.0172 124.21 38.5037 124.277 37.9975C124.277 37.6753 124.327 37.3019 124.352 36.912C124.355 36.8272 124.381 36.745 124.427 36.6747C124.424 36.6576 124.424 36.6405 124.427 36.6234C124.474 36.5596 124.537 36.5096 124.609 36.4794C124.675 36.4669 124.742 36.4669 124.808 36.4794H124.874C124.949 36.5017 125.018 36.5425 125.074 36.5977C125.157 36.6799 125.202 36.7937 125.198 36.912V38.15V38.2519V38.557V39.1336L125.265 39.0908Z" fill="black" stroke="black" stroke-width="0.390625"/>
<path d="M125.745 43.4496C125.745 43.2964 125.685 43.1498 125.58 43.0413C125.474 42.9335 125.33 42.873 125.181 42.873C124.868 42.873 124.613 43.1294 124.608 43.4496C124.606 43.9822 124.576 44.514 124.518 45.0433C124.435 45.9421 124.394 46.4253 124.941 46.5864H125.115L125.114 46.587C125.228 46.5877 125.339 46.5588 125.438 46.5022C125.819 46.2649 125.811 45.8323 125.778 44.6705C125.745 44.3483 125.745 43.9414 125.745 43.4496ZM125.33 46.3326H125.33C125.23 46.3918 125.111 46.4102 124.999 46.3832C124.634 46.2728 124.642 45.9848 124.725 45.069C124.777 44.5312 124.802 43.9901 124.799 43.4496C124.826 43.2669 124.98 43.1321 125.16 43.1321C125.341 43.1321 125.494 43.2669 125.521 43.4496V44.6962C125.587 45.7981 125.595 46.163 125.314 46.3326H125.33Z" fill="black" stroke="black" stroke-width="0.390625"/>
<path d="M123.631 48.2919C123.631 47.5628 123.556 46.7995 123.548 46.0618C123.548 45.6496 123.221 45.3156 122.818 45.3156C122.415 45.3156 122.088 45.6496 122.088 46.0618C122.088 46.9099 122.039 47.4274 122.014 47.8173C122.014 48.5293 121.956 48.7246 122.229 48.9961C122.382 49.1506 122.587 49.2387 122.801 49.242C122.918 49.2413 123.035 49.215 123.142 49.1657C123.448 49.0402 123.644 48.7312 123.631 48.3939L123.631 48.2919ZM123.059 48.979C122.825 49.0874 122.551 49.0368 122.37 48.8514C122.179 48.6476 122.179 48.5628 122.221 47.8337C122.221 47.4352 122.279 46.8922 122.295 46.0612V46.0618C122.295 45.7653 122.528 45.524 122.818 45.5194C123.108 45.524 123.34 45.7653 123.34 46.0618C123.34 46.8081 123.382 47.5714 123.423 48.3005V48.411C123.433 48.6602 123.286 48.8882 123.059 48.979Z" fill="black" stroke="black" stroke-width="0.390625"/>
<path d="M125.33 49.4953C125.053 49.3481 124.714 49.4066 124.5 49.6393C124.326 49.826 124.309 49.9444 124.243 50.64C124.243 50.8517 124.193 51.1232 124.16 51.4881V51.8359V51.8352C124.115 52.187 124.091 52.5407 124.085 52.8951C124.085 53.3448 124.426 53.7162 124.865 53.7432H124.915C125.135 53.7432 125.346 53.6538 125.502 53.4947C125.657 53.3362 125.744 53.1206 125.744 52.8951C125.76 52.5736 125.76 52.2508 125.744 51.9286V50.1731C125.765 49.8792 125.597 49.6051 125.33 49.4953ZM125.496 51.9286C125.512 52.2534 125.512 52.5788 125.496 52.9036C125.503 53.0779 125.437 53.2468 125.316 53.3684C125.193 53.4894 125.027 53.5519 124.856 53.54C124.697 53.542 124.543 53.4776 124.431 53.3599C124.32 53.2429 124.261 53.0838 124.268 52.9207C124.268 52.5644 124.318 52.2001 124.359 51.8523C124.359 51.7333 124.359 51.6235 124.401 51.5045C124.401 51.1653 124.467 50.8937 124.492 50.6564C124.558 49.9693 124.566 49.9102 124.691 49.8083L124.691 49.8089C124.837 49.6518 125.065 49.6104 125.255 49.707C125.433 49.7793 125.547 49.9601 125.537 50.1567C125.479 50.8431 125.487 51.4112 125.496 51.9286Z" fill="black" stroke="black" stroke-width="0.390625"/>
<path d="M125.165 57.0171C125.161 56.5924 124.825 56.2499 124.41 56.2453C123.997 56.2545 123.664 56.5944 123.655 57.0171V57.5175C123.672 58.2012 123.624 58.8856 123.515 59.5609V59.7305C123.537 60.1822 123.902 60.5366 124.344 60.5359H124.477C124.792 60.4952 125.05 60.2592 125.124 59.9423C125.232 59.2158 125.268 58.4801 125.232 57.7463C125.165 57.4919 125.165 57.263 125.165 57.0171ZM124.859 59.858L124.858 59.8574C124.809 60.0895 124.617 60.2611 124.385 60.2814C124.146 60.3301 123.903 60.2177 123.78 60.002C123.73 59.9106 123.702 59.8094 123.697 59.7048V59.5609C123.801 58.8876 123.846 58.2065 123.83 57.526V57.0171C123.83 56.7081 124.075 56.457 124.377 56.457C124.679 56.457 124.925 56.7081 124.925 57.0171V57.7042V57.7035C124.976 58.428 124.954 59.1552 124.858 59.8744L124.859 59.858Z" fill="black" stroke="black" stroke-width="0.390625"/>
<path d="M128.084 23.6496C124.827 17.7962 118.795 14.1296 112.209 14H111.703C109.055 14.2018 106.429 14.6417 103.857 15.3143C97.0473 17.2137 93.0743 21.4872 91.5566 28.6357C91.2498 29.424 90.9843 30.2215 90.727 31.0183C90.2447 32.7455 89.8653 34.5015 89.5907 36.2753C88.3894 36.3897 87.2133 36.6994 86.1072 37.1912C85.9348 37.2438 85.8172 37.4061 85.8172 37.5896C84.4416 38.3233 83.2455 39.3634 82.3168 40.6343C80.9966 42.5364 80.2081 44.7704 80.0359 47.0966C79.8636 49.4227 80.3137 51.7527 81.3382 53.8369C82.843 56.954 85.5464 59.2912 88.8031 60.29C88.9355 62.0703 89.1014 63.7923 89.3008 65.378C89.3201 65.4766 89.405 65.5476 89.504 65.5476C89.6024 65.5476 89.6873 65.4766 89.7072 65.378C89.558 63.733 89.3998 62.1045 89.2506 60.4089C89.7638 60.5556 90.2841 60.6713 90.8101 60.7561V61.9941C90.868 65.547 90.7188 65.6575 90.9677 65.7594C91.0339 65.8442 91.1587 65.8356 91.4821 65.8698C92.194 65.9908 92.9181 66.0276 93.6384 65.9796C93.7593 65.9481 93.8493 65.8442 93.8661 65.7173C93.8822 65.5904 93.8217 65.4661 93.713 65.403C93.5349 63.9408 93.4822 62.4655 93.5555 60.9941C93.9786 60.9941 94.385 60.9941 94.8082 60.9435C94.8661 62.5122 94.8995 63.9283 94.8082 65.0816C94.8082 65.6667 95.0571 65.624 95.0487 65.624C95.9104 65.6155 96.7722 65.5589 97.6281 65.4544C97.7239 65.4307 97.7998 65.3558 97.8268 65.2591C97.9355 63.6437 97.9297 62.023 97.8107 60.4091C98.3425 60.2427 98.8634 60.0416 99.3695 59.8068C99.5187 65.4545 99.585 65.3097 99.8422 65.3097C99.9779 65.3058 100.087 65.194 100.091 65.056C100.042 64.6234 99.983 62.1901 99.9252 59.5445V59.5438C100.512 59.2197 101.068 58.839 101.584 58.4077C101.733 60.6378 101.899 62.8003 101.916 64.7845C101.825 64.8726 101.798 65.01 101.848 65.127C101.898 65.2447 102.014 65.3177 102.14 65.3098C103.973 65.3861 110.94 66.2086 109.903 64.657C109.958 63.5603 109.936 62.461 109.837 61.367C109.787 59.6115 109.746 56.4826 109.48 53.2433C110.243 53.1177 110.992 52.9218 111.72 52.6582C111.962 54.344 112.103 56.0427 112.142 57.7462C112.101 57.7962 112.078 57.8586 112.076 57.9244C112.259 60.1972 112.408 62.478 112.391 64.7586C112.389 64.8296 112.415 64.8987 112.464 64.9499C112.512 65.0012 112.579 65.0301 112.648 65.0301C112.719 65.0301 112.787 65.0012 112.836 64.9506C112.886 64.9 112.914 64.8309 112.914 64.7586C112.914 62.4778 112.873 60.205 112.69 57.9244C112.697 57.8849 112.697 57.8448 112.69 57.8054C112.643 56.0302 112.485 54.2604 112.217 52.5056C112.877 52.2262 113.517 51.9007 114.133 51.5306C114.594 55.8666 114.774 60.2289 114.672 64.5891C114.582 64.6213 114.522 64.7081 114.522 64.8054C114.522 64.9027 114.582 64.9895 114.672 65.0217L116.24 65.2085C116.484 65.244 116.731 65.2637 116.978 65.2676C117.096 65.263 117.199 65.1855 117.239 65.0717C117.28 64.958 117.248 64.8311 117.16 64.7502C117.019 64.0546 116.895 63.3255 116.787 62.5373V62.5879C116.174 57.839 116.513 54.9988 115.875 50.3519C116.381 49.987 116.87 49.5886 117.36 49.1645C117.509 50.2329 117.642 51.2335 117.758 52.1323C119.607 66.2935 117.567 64.8515 118.943 65.2757C120.52 65.7931 120.403 65.9029 120.603 65.9029V65.9036C120.704 65.9036 120.799 65.849 120.851 65.7596C120.792 59.5373 120.362 53.3243 119.566 47.1545L120.545 46.171C120.661 47.6042 120.785 49.0368 120.943 50.4615C121.415 54.7014 121.706 57.3892 121.896 59.1874V59.1868C121.797 59.2308 121.707 59.2946 121.631 59.3735C121.493 59.5214 121.417 59.72 121.424 59.9251C121.498 60.6496 121.493 61.3807 121.407 62.1039C121.33 62.3866 121.357 62.6877 121.482 62.952C121.639 63.2262 121.926 63.3938 122.237 63.3932H122.377C122.377 63.7659 122.444 64.2919 122.552 65.4622C122.552 65.5884 122.652 65.691 122.776 65.691C122.899 65.691 122.999 65.5885 122.999 65.4622C122.999 64.8429 122.941 63.9869 122.883 63.1387H122.884C122.927 63.0946 122.965 63.046 122.999 62.994C123.182 62.6633 123.206 61.637 123.066 59.8652H123.066C123.064 59.5233 122.846 59.2222 122.527 59.1189C122.435 58.161 122.344 57.211 122.237 56.2531V55.9139C122.322 55.9441 122.412 55.9612 122.502 55.9645C122.738 55.9684 122.964 55.8698 123.124 55.6936C123.276 55.5319 123.359 55.3156 123.356 55.0914V54.4043C123.356 53.8192 123.257 53.0224 123.265 52.386V52.3866C123.269 52.1006 123.101 51.8416 122.842 51.7337C122.583 51.6226 122.285 51.6825 122.087 51.8863C121.963 52.0197 121.889 52.194 121.88 52.3781C121.68 50.6226 121.49 48.8673 121.324 47.1125C121.275 46.6036 121.241 46.0947 121.2 45.5858L122.594 44.1191C123.365 43.2709 124.17 42.4228 124.999 41.5754L125.214 41.3637V41.363C126.369 40.2664 127.324 38.9685 128.034 37.5301C130.622 33.4433 130.672 28.3551 128.084 23.649L128.084 23.6496ZM122.278 63.2328H122.278C122.039 63.2328 121.818 63.104 121.697 62.8936C121.581 62.6819 121.606 62.5287 121.697 62.1645V62.1638C121.815 61.4103 121.849 60.6451 121.797 59.883C121.792 59.7377 121.846 59.5964 121.946 59.4932C121.988 59.4517 122.035 59.4175 122.087 59.3912C122.394 62.215 122.411 62.6306 122.444 63.1986H122.444C122.377 63.2236 122.307 63.2348 122.237 63.2328L122.278 63.2328ZM122.9 59.9001C123.047 60.858 123.047 61.8337 122.9 62.7917C122.851 62.0796 122.792 61.3841 122.743 60.8581C122.693 60.3322 122.643 59.866 122.593 59.3742H122.593C122.768 59.4873 122.869 59.6885 122.858 59.9002L122.9 59.9001ZM122.071 52.4044V52.4037C122.072 52.2716 122.122 52.144 122.211 52.0481C122.3 51.9514 122.422 51.8968 122.552 51.8955C122.617 51.8982 122.682 51.912 122.743 51.9376C122.925 52.0119 123.044 52.194 123.041 52.3959C123.041 53.0402 123.091 53.8456 123.132 54.4307V55.1092C123.141 55.2749 123.077 55.4366 122.958 55.5497C122.756 55.7614 122.443 55.8134 122.186 55.6773C122.112 54.9567 122.029 54.244 121.946 53.5234C121.971 53.0651 122.004 52.6418 122.013 52.4038L122.071 52.4044ZM91.0169 32.1718C90.9037 33.5229 90.9037 34.8819 91.0169 36.2336H90.2542C90.4284 34.9108 90.6857 33.5289 91.0169 32.1718ZM81.5534 53.7526C80.5418 51.7052 80.0955 49.4134 80.2634 47.126C80.4318 44.838 81.2074 42.6402 82.5077 40.7703C83.4318 39.5093 84.6229 38.4777 85.9913 37.7511H86.0659V37.6749C86.0453 37.5631 86.1147 37.4546 86.2234 37.429C87.2903 36.9457 88.4227 36.6308 89.5822 36.4967C88.4973 44.3034 88.2497 52.2081 88.8439 60.0703C85.6633 59.0867 83.0235 56.7992 81.5534 53.7526ZM89.2504 60.197C88.9764 56.2096 88.9186 52.2095 89.0761 48.2153C89.0761 47.4349 89.1424 46.6466 89.1925 45.8576C89.3668 43.0423 89.6485 40.2271 90.0221 37.429C90.0221 37.1154 90.1134 36.7932 90.1629 36.4711H90.7436H91.6639C91.3738 38.0904 91.1745 39.7275 91.0169 41.3211C90.3449 48.0029 90.6523 53.8543 90.8099 60.5354C90.2851 60.4486 89.7648 60.3356 89.2504 60.1962L89.2504 60.197ZM93.588 60.7822C93.588 59.0859 93.7205 57.3904 93.7288 55.9742C93.7288 51.9381 93.2311 45.044 94.069 38.65C94.1436 38.0649 94.2349 37.4883 94.3346 36.9538L94.3353 36.9544C94.8793 37.0905 95.4163 37.2542 95.9442 37.4462C93.8375 44.815 94.5674 54.2273 94.8246 60.7572C94.4259 60.7572 94.0118 60.7829 93.597 60.7829L93.588 60.7822ZM97.7931 60.1628C97.5359 54.4133 97.1295 45.1963 97.7931 39.9891C97.8844 39.3363 97.9841 38.8359 98.0831 38.4204H98.0838C98.5506 38.7031 99.0021 39.0115 99.4355 39.3448C98.4574 42.4061 99.0709 46.8412 99.2034 51.3014C99.2863 54.8971 99.3442 57.5676 99.4027 59.552C98.8844 59.7946 98.3494 59.9991 97.8021 60.1628L97.7931 60.1628ZM99.9082 59.3147C99.8504 56.6948 99.8002 53.9129 99.7758 52.7092C99.6266 45.8749 99.361 45.9254 99.4272 43.1779L99.4279 43.1786C99.433 42.032 99.5893 40.8906 99.8922 39.7868L100.141 40.0156L100.747 40.5836L100.913 40.7618C101.12 40.9906 101.336 41.2194 101.535 41.4574L101.675 41.6356C101.875 41.89 102.065 42.1445 102.248 42.4074L102.38 42.6027C102.563 42.8631 102.737 43.1451 102.903 43.4508V43.4502C102.329 44.3174 101.934 45.2957 101.742 46.3246C101.054 50.0643 101.277 54.2273 101.551 58.1964V58.1957C101.041 58.6099 100.494 58.9735 99.9172 59.2812L99.9082 59.3147ZM109.48 53.0399C109.024 47.6467 107.929 42.0162 105.068 42.0162V42.0169C104.252 42.0794 103.513 42.5278 103.069 43.2293C102.92 42.9748 102.762 42.7204 102.596 42.483L102.439 42.2457C102.264 41.9998 102.082 41.7539 101.891 41.5166H101.891C101.835 41.439 101.774 41.3654 101.708 41.2963C101.526 41.0761 101.335 40.8637 101.144 40.652L100.912 40.4061C100.746 40.2365 100.572 40.0754 100.389 39.9143C100.207 39.7533 100.165 39.7026 100.049 39.6007L99.9577 39.5245L99.9584 39.5238C100.142 38.9157 100.423 38.343 100.788 37.8282C101.519 36.9019 102.547 36.2707 103.691 36.0472C108.053 35.4877 110.707 45.2898 111.703 52.4213C110.983 52.6829 110.242 52.8789 109.488 53.0064L109.48 53.0399ZM112.167 52.2851C111.114 45.086 108.36 34.7741 103.417 35.7328V35.7335C102.614 35.9254 101.862 36.293 101.211 36.8104C100.44 37.4238 99.8634 38.2555 99.5522 39.2016C99.1142 38.861 98.6576 38.5467 98.1837 38.2601C98.3663 37.5645 98.5406 37.1832 98.6396 36.8696C99.156 35.4968 100.19 34.3935 101.51 33.8083C102.804 33.2804 104.232 33.2048 105.572 33.5947C106.912 33.9845 108.088 34.8169 108.916 35.9621C109.453 36.6939 109.94 37.4618 110.376 38.2599C110.827 39.0837 111.231 39.9331 111.587 40.8042C112.891 44.1711 113.747 47.7016 114.133 51.3019C113.503 51.6642 112.849 51.9817 112.176 52.2513L112.167 52.2851ZM115.916 50.1569V50.1575C115.525 47.5797 114.972 45.0299 114.257 42.5256C113.536 39.8971 112.267 36.1916 110.749 33.9359C108.999 31.3495 106.444 29.5434 103.4 29.5434C100.787 29.5434 98.6563 30.6795 96.9719 34.4447L96.9726 34.4441C96.5893 35.3435 96.2626 36.2672 95.9938 37.2087C95.4523 37.0023 94.898 36.8327 94.3354 36.6999C95.1148 32.46 96.6492 29.068 100.739 27.2449C106.81 24.7012 111.587 28.4322 114.117 34.5546C115.776 38.5822 116.722 44.3317 117.369 48.97C116.92 49.3856 116.431 49.7498 115.925 50.1232L115.916 50.1569ZM119.615 46.842C119.538 46.2088 119.455 45.5645 119.367 44.9084C118.537 38.5995 117.426 30.2134 112.731 26.0762C110.298 24.0472 107.254 22.9394 104.114 22.9387C101.284 22.8736 98.5435 23.9486 96.483 25.9314C93.7545 28.6619 92.4523 32.4272 91.7391 36.2766H91.1912C91.0755 34.5804 91.1256 32.8756 91.3404 31.1891C91.3404 31.0787 91.3816 30.9689 91.3983 30.8584H91.3989C92.0973 28.0564 93.5314 25.5021 95.5461 23.4724C99.2451 20.1311 106.436 18.9616 111.844 22.6243C119.209 27.7123 119.848 36.8445 120.611 45.9606C120.271 46.1979 119.939 46.5372 119.615 46.8429L119.615 46.842ZM127.777 37.5139C127.076 38.9347 126.132 40.2154 124.99 41.2963L124.775 41.508C123.945 42.3562 123.116 43.2043 122.37 44.0517L121.1 45.341C120.943 43.4758 120.802 41.6013 120.603 39.7361C119.939 33.5204 118.446 27.5508 113.735 23.3028V23.3021C111.147 20.9641 107.79 19.7104 104.338 19.792C101.418 19.792 97.5617 20.8689 95.0896 23.1417V23.1411C93.8002 24.3778 92.7649 25.8657 92.046 27.5165C93.7051 21.1483 97.5701 17.3409 103.906 15.5264C106.465 14.8564 109.077 14.4198 111.711 14.2206H112.209C118.717 14.3488 124.678 17.9694 127.901 23.7519C130.447 28.3904 130.406 33.3928 127.777 37.5139Z" fill="black"/>
<path d="M127.777 37.5146V37.5139M127.777 37.5139C127.076 38.9347 126.132 40.2154 124.99 41.2963L124.775 41.508C123.945 42.3562 123.116 43.2043 122.37 44.0517L121.1 45.341C120.943 43.4758 120.802 41.6013 120.603 39.7361C119.939 33.5204 118.446 27.5508 113.735 23.3028V23.3021C111.147 20.9641 107.79 19.7104 104.338 19.792C101.418 19.792 97.5617 20.8689 95.0896 23.1417V23.1411C93.8002 24.3778 92.7649 25.8657 92.046 27.5165C93.7051 21.1483 97.5701 17.3409 103.906 15.5264C106.465 14.8564 109.077 14.4198 111.711 14.2206H112.209C118.717 14.3488 124.678 17.9694 127.901 23.7519C130.447 28.3904 130.406 33.3928 127.777 37.5139ZM128.084 23.6496C124.827 17.7962 118.795 14.1296 112.209 14H111.703C109.055 14.2018 106.429 14.6417 103.857 15.3143C97.0473 17.2137 93.0743 21.4872 91.5566 28.6357C91.2498 29.424 90.9843 30.2215 90.727 31.0183C90.2447 32.7455 89.8653 34.5015 89.5907 36.2753C88.3894 36.3897 87.2133 36.6994 86.1072 37.1912C85.9348 37.2438 85.8172 37.4061 85.8172 37.5896C84.4416 38.3233 83.2455 39.3634 82.3168 40.6343C80.9966 42.5364 80.2081 44.7704 80.0359 47.0966C79.8636 49.4227 80.3137 51.7527 81.3382 53.8369C82.843 56.954 85.5464 59.2912 88.8031 60.29C88.9355 62.0703 89.1014 63.7923 89.3008 65.378C89.3201 65.4766 89.405 65.5476 89.504 65.5476C89.6024 65.5476 89.6873 65.4766 89.7072 65.378C89.558 63.733 89.3998 62.1045 89.2506 60.4089C89.7638 60.5556 90.2841 60.6713 90.8101 60.7561V61.9941C90.868 65.547 90.7188 65.6575 90.9677 65.7594C91.0339 65.8442 91.1587 65.8356 91.4821 65.8698C92.194 65.9908 92.9181 66.0276 93.6384 65.9796C93.7593 65.9481 93.8493 65.8442 93.8661 65.7173C93.8822 65.5904 93.8217 65.4661 93.713 65.403C93.5349 63.9408 93.4822 62.4655 93.5555 60.9941C93.9786 60.9941 94.385 60.9941 94.8082 60.9435C94.8661 62.5122 94.8995 63.9283 94.8082 65.0816C94.8082 65.6667 95.0571 65.624 95.0487 65.624C95.9104 65.6155 96.7722 65.5589 97.6281 65.4544C97.7239 65.4307 97.7998 65.3558 97.8268 65.2591C97.9355 63.6437 97.9297 62.023 97.8107 60.4091C98.3425 60.2427 98.8634 60.0416 99.3695 59.8068C99.5187 65.4545 99.585 65.3097 99.8422 65.3097C99.9779 65.3058 100.087 65.194 100.091 65.056C100.042 64.6234 99.983 62.1901 99.9252 59.5445V59.5438C100.512 59.2197 101.068 58.839 101.584 58.4077C101.733 60.6378 101.899 62.8003 101.916 64.7845C101.825 64.8726 101.798 65.01 101.848 65.127C101.898 65.2447 102.014 65.3177 102.14 65.3098C103.973 65.3861 110.94 66.2086 109.903 64.657C109.958 63.5603 109.936 62.461 109.837 61.367C109.787 59.6115 109.746 56.4826 109.48 53.2433C110.243 53.1177 110.992 52.9218 111.72 52.6582C111.962 54.344 112.103 56.0427 112.142 57.7462C112.101 57.7962 112.078 57.8586 112.076 57.9244C112.259 60.1972 112.408 62.478 112.391 64.7586C112.389 64.8296 112.415 64.8987 112.464 64.9499C112.512 65.0012 112.579 65.0301 112.648 65.0301C112.719 65.0301 112.787 65.0012 112.836 64.9506C112.886 64.9 112.914 64.8309 112.914 64.7586C112.914 62.4778 112.873 60.205 112.69 57.9244C112.697 57.8849 112.697 57.8448 112.69 57.8054C112.643 56.0302 112.485 54.2604 112.217 52.5056C112.877 52.2262 113.517 51.9007 114.133 51.5306C114.594 55.8666 114.774 60.2289 114.672 64.5891C114.582 64.6213 114.522 64.7081 114.522 64.8054C114.522 64.9027 114.582 64.9895 114.672 65.0217L116.24 65.2085C116.484 65.244 116.731 65.2637 116.978 65.2676C117.096 65.263 117.199 65.1855 117.239 65.0717C117.28 64.958 117.248 64.8311 117.16 64.7502C117.019 64.0546 116.895 63.3255 116.787 62.5373V62.5879C116.174 57.839 116.513 54.9988 115.875 50.3519C116.381 49.987 116.87 49.5886 117.36 49.1645C117.509 50.2329 117.642 51.2335 117.758 52.1323C119.607 66.2935 117.567 64.8515 118.943 65.2757C120.52 65.7931 120.403 65.9029 120.603 65.9029V65.9036C120.704 65.9036 120.799 65.849 120.851 65.7596C120.792 59.5373 120.362 53.3243 119.566 47.1545L120.545 46.171C120.661 47.6042 120.785 49.0368 120.943 50.4615C121.415 54.7014 121.706 57.3892 121.896 59.1874V59.1868C121.797 59.2308 121.707 59.2946 121.631 59.3735C121.493 59.5214 121.417 59.72 121.424 59.9251C121.498 60.6496 121.493 61.3807 121.407 62.1039C121.33 62.3866 121.357 62.6877 121.482 62.952C121.639 63.2262 121.926 63.3938 122.237 63.3932H122.377C122.377 63.7659 122.444 64.2919 122.552 65.4622C122.552 65.5884 122.652 65.691 122.776 65.691C122.899 65.691 122.999 65.5885 122.999 65.4622C122.999 64.8429 122.941 63.9869 122.883 63.1387H122.884C122.927 63.0946 122.965 63.046 122.999 62.994C123.182 62.6633 123.206 61.637 123.066 59.8652H123.066C123.064 59.5233 122.846 59.2222 122.527 59.1189C122.435 58.161 122.344 57.211 122.237 56.2531V55.9139C122.322 55.9441 122.412 55.9612 122.502 55.9645C122.738 55.9684 122.964 55.8698 123.124 55.6936C123.276 55.5319 123.359 55.3156 123.356 55.0914V54.4043C123.356 53.8192 123.257 53.0224 123.265 52.386V52.3866C123.269 52.1006 123.101 51.8416 122.842 51.7337C122.583 51.6226 122.285 51.6825 122.087 51.8863C121.963 52.0197 121.889 52.194 121.88 52.3781C121.68 50.6226 121.49 48.8673 121.324 47.1125C121.275 46.6036 121.241 46.0947 121.2 45.5858L122.594 44.1191C123.365 43.2709 124.17 42.4228 124.999 41.5754L125.214 41.3637V41.363C126.369 40.2664 127.324 38.9685 128.034 37.5301C130.622 33.4433 130.672 28.3551 128.084 23.649L128.084 23.6496ZM122.278 63.2328H122.278C122.039 63.2328 121.818 63.104 121.697 62.8936C121.581 62.6819 121.606 62.5287 121.697 62.1645V62.1638C121.815 61.4103 121.849 60.6451 121.797 59.883C121.792 59.7377 121.846 59.5964 121.946 59.4932C121.988 59.4517 122.035 59.4175 122.087 59.3912C122.394 62.215 122.411 62.6306 122.444 63.1986H122.444C122.377 63.2236 122.307 63.2348 122.237 63.2328L122.278 63.2328ZM122.9 59.9001C123.047 60.858 123.047 61.8337 122.9 62.7917C122.851 62.0796 122.792 61.3841 122.743 60.8581C122.693 60.3322 122.643 59.866 122.593 59.3742H122.593C122.768 59.4873 122.869 59.6885 122.858 59.9002L122.9 59.9001ZM122.071 52.4044V52.4037C122.072 52.2716 122.122 52.144 122.211 52.0481C122.3 51.9514 122.422 51.8968 122.552 51.8955C122.617 51.8982 122.682 51.912 122.743 51.9376C122.925 52.0119 123.044 52.194 123.041 52.3959C123.041 53.0402 123.091 53.8456 123.132 54.4307V55.1092C123.141 55.2749 123.077 55.4366 122.958 55.5497C122.756 55.7614 122.443 55.8134 122.186 55.6773C122.112 54.9567 122.029 54.244 121.946 53.5234C121.971 53.0651 122.004 52.6418 122.013 52.4038L122.071 52.4044ZM91.0169 32.1718C90.9037 33.5229 90.9037 34.8819 91.0169 36.2336H90.2542C90.4284 34.9108 90.6857 33.5289 91.0169 32.1718ZM81.5534 53.7526C80.5418 51.7052 80.0955 49.4134 80.2634 47.126C80.4318 44.838 81.2074 42.6402 82.5077 40.7703C83.4318 39.5093 84.6229 38.4777 85.9913 37.7511H86.0659V37.6749C86.0453 37.5631 86.1147 37.4546 86.2234 37.429C87.2903 36.9457 88.4227 36.6308 89.5822 36.4967C88.4973 44.3034 88.2497 52.2081 88.8439 60.0703C85.6633 59.0867 83.0235 56.7992 81.5534 53.7526ZM89.2504 60.197C88.9764 56.2096 88.9186 52.2095 89.0761 48.2153C89.0761 47.4349 89.1424 46.6466 89.1925 45.8576C89.3668 43.0423 89.6485 40.2271 90.0221 37.429C90.0221 37.1154 90.1134 36.7932 90.1629 36.4711H90.7436H91.6639C91.3738 38.0904 91.1745 39.7275 91.0169 41.3211C90.3449 48.0029 90.6523 53.8543 90.8099 60.5354C90.2851 60.4486 89.7648 60.3356 89.2504 60.1962L89.2504 60.197ZM93.588 60.7822C93.588 59.0859 93.7205 57.3904 93.7288 55.9742C93.7288 51.9381 93.2311 45.044 94.069 38.65C94.1436 38.0649 94.2349 37.4883 94.3346 36.9538L94.3353 36.9544C94.8793 37.0905 95.4163 37.2542 95.9442 37.4462C93.8375 44.815 94.5674 54.2273 94.8246 60.7572C94.4259 60.7572 94.0118 60.7829 93.597 60.7829L93.588 60.7822ZM97.7931 60.1628C97.5359 54.4133 97.1295 45.1963 97.7931 39.9891C97.8844 39.3363 97.9841 38.8359 98.0831 38.4204H98.0838C98.5506 38.7031 99.0021 39.0115 99.4355 39.3448C98.4574 42.4061 99.0709 46.8412 99.2034 51.3014C99.2863 54.8971 99.3442 57.5676 99.4027 59.552C98.8844 59.7946 98.3494 59.9991 97.8021 60.1628L97.7931 60.1628ZM99.9082 59.3147C99.8504 56.6948 99.8002 53.9129 99.7758 52.7092C99.6266 45.8749 99.361 45.9254 99.4272 43.1779L99.4279 43.1786C99.433 42.032 99.5893 40.8906 99.8922 39.7868L100.141 40.0156L100.747 40.5836L100.913 40.7618C101.12 40.9906 101.336 41.2194 101.535 41.4574L101.675 41.6356C101.875 41.89 102.065 42.1445 102.248 42.4074L102.38 42.6027C102.563 42.8631 102.737 43.1451 102.903 43.4508V43.4502C102.329 44.3174 101.934 45.2957 101.742 46.3246C101.054 50.0643 101.277 54.2273 101.551 58.1964V58.1957C101.041 58.6099 100.494 58.9735 99.9172 59.2812L99.9082 59.3147ZM109.48 53.0399C109.024 47.6467 107.929 42.0162 105.068 42.0162V42.0169C104.252 42.0794 103.513 42.5278 103.069 43.2293C102.92 42.9748 102.762 42.7204 102.596 42.483L102.439 42.2457C102.264 41.9998 102.082 41.7539 101.891 41.5166H101.891C101.835 41.439 101.774 41.3654 101.708 41.2963C101.526 41.0761 101.335 40.8637 101.144 40.652L100.912 40.4061C100.746 40.2365 100.572 40.0754 100.389 39.9143C100.207 39.7533 100.165 39.7026 100.049 39.6007L99.9577 39.5245L99.9584 39.5238C100.142 38.9157 100.423 38.343 100.788 37.8282C101.519 36.9019 102.547 36.2707 103.691 36.0472C108.053 35.4877 110.707 45.2898 111.703 52.4213C110.983 52.6829 110.242 52.8789 109.488 53.0064L109.48 53.0399ZM112.167 52.2851C111.114 45.086 108.36 34.7741 103.417 35.7328V35.7335C102.614 35.9254 101.862 36.293 101.211 36.8104C100.44 37.4238 99.8634 38.2555 99.5522 39.2016C99.1142 38.861 98.6576 38.5467 98.1837 38.2601C98.3663 37.5645 98.5406 37.1832 98.6396 36.8696C99.156 35.4968 100.19 34.3935 101.51 33.8083C102.804 33.2804 104.232 33.2048 105.572 33.5947C106.912 33.9845 108.088 34.8169 108.916 35.9621C109.453 36.6939 109.94 37.4618 110.376 38.2599C110.827 39.0837 111.231 39.9331 111.587 40.8042C112.891 44.1711 113.747 47.7016 114.133 51.3019C113.503 51.6642 112.849 51.9817 112.176 52.2513L112.167 52.2851ZM115.916 50.1569V50.1575C115.525 47.5797 114.972 45.0299 114.257 42.5256C113.536 39.8971 112.267 36.1916 110.749 33.9359C108.999 31.3495 106.444 29.5434 103.4 29.5434C100.787 29.5434 98.6563 30.6795 96.9719 34.4447L96.9726 34.4441C96.5893 35.3435 96.2626 36.2672 95.9938 37.2087C95.4523 37.0023 94.898 36.8327 94.3354 36.6999C95.1148 32.46 96.6492 29.068 100.739 27.2449C106.81 24.7012 111.587 28.4322 114.117 34.5546C115.776 38.5822 116.722 44.3317 117.369 48.97C116.92 49.3856 116.431 49.7498 115.925 50.1232L115.916 50.1569ZM119.615 46.842C119.538 46.2088 119.455 45.5645 119.367 44.9084C118.537 38.5995 117.426 30.2134 112.731 26.0762C110.298 24.0472 107.254 22.9394 104.114 22.9387C101.284 22.8736 98.5435 23.9486 96.483 25.9314C93.7545 28.6619 92.4523 32.4272 91.7391 36.2766H91.1912C91.0755 34.5804 91.1256 32.8756 91.3404 31.1891C91.3404 31.0787 91.3816 30.9689 91.3983 30.8584H91.3989C92.0973 28.0564 93.5314 25.5021 95.5461 23.4724C99.2451 20.1311 106.436 18.9616 111.844 22.6243C119.209 27.7123 119.848 36.8445 120.611 45.9606C120.271 46.1979 119.939 46.5372 119.615 46.8429L119.615 46.842Z" stroke="black" stroke-width="0.390625"/>
<path d="M123.298 39.9976V39.803C123.296 39.7149 123.277 39.6281 123.24 39.5485V39.4808C123.209 39.4263 123.173 39.375 123.132 39.3276L123.083 39.2685H123.082C123.037 39.2277 122.987 39.1935 122.933 39.1666H122.875C122.802 39.1337 122.723 39.1166 122.643 39.1159H122.585C122.516 39.1034 122.446 39.1034 122.377 39.1159H122.328C122.247 39.1521 122.174 39.2034 122.112 39.2685C121.983 39.4052 121.912 39.588 121.913 39.7773C121.911 40.3868 121.875 40.9956 121.805 41.6005C121.799 41.7274 121.799 41.8549 121.805 41.9818C121.801 42.0127 121.801 42.0443 121.805 42.0752V42.1343V42.135C121.801 42.1823 121.801 42.231 121.805 42.279C121.802 42.3158 121.802 42.3526 121.805 42.3888C121.827 42.4519 121.861 42.5097 121.905 42.5584V42.6176V42.6182C121.962 42.6754 122.03 42.7214 122.103 42.7536H122.154C122.253 42.797 122.36 42.8201 122.469 42.8214H122.535C122.724 42.8155 122.903 42.7333 123.033 42.5926L123.091 42.5078L123.14 42.44V42.3894L123.141 42.3888C123.144 42.3552 123.144 42.321 123.141 42.2875V42.2198V42.2191C123.149 42.1606 123.149 42.1008 123.141 42.0416C123.145 41.9989 123.145 41.9561 123.141 41.9141C123.167 41.4683 123.167 41.0206 123.141 40.5742C123.323 40.4216 123.314 40.1757 123.298 39.9976ZM123.091 42.0752V42.2021L123.091 42.2027C123.095 42.2336 123.095 42.2652 123.091 42.2961V42.3809C123.066 42.4361 123.032 42.4881 122.991 42.5335L122.883 42.6183L122.8 42.6689H122.801C122.731 42.7037 122.654 42.7208 122.577 42.7195C122.496 42.7208 122.417 42.7037 122.344 42.6689C122.284 42.634 122.228 42.5913 122.178 42.542V42.4907C122.153 42.4532 122.131 42.4138 122.112 42.3724C122.107 42.3329 122.107 42.2928 122.112 42.2534V42.2027C122.108 42.1515 122.108 42.1008 122.112 42.0502V41.6682C122.197 41.0647 122.233 40.4552 122.22 39.8451C122.22 39.7149 122.271 39.59 122.361 39.4973C122.424 39.4408 122.497 39.3974 122.577 39.3704H122.651C122.727 39.35 122.807 39.35 122.884 39.3704C122.967 39.4066 123.038 39.4651 123.091 39.54C123.093 39.5571 123.093 39.5742 123.091 39.5907C123.143 39.6682 123.172 39.7596 123.174 39.8536V40.0404V40.7524C123.124 41.1508 123.124 41.6682 123.091 42.0752L123.091 42.0752Z" fill="black" stroke="black" stroke-width="0.390625"/>
<path d="M21.908 29.592C22.724 30.024 23.24 30.66 23.456 31.5C22.976 34.188 22.544 36.864 22.16 39.528C21.776 42.168 21.404 44.388 21.044 46.188C20.684 47.964 20.432 49.296 20.288 50.184C20.168 51.072 20.024 51.96 19.856 52.848L19.64 53.604C19.592 53.868 19.544 54.108 19.496 54.324C19.448 54.564 19.4 54.816 19.352 55.08C18.68 55.848 17.768 56.232 16.616 56.232C15.392 56.232 14.42 55.92 13.7 55.296C13.268 54.96 13.196 54.252 13.484 53.172C13.604 52.74 13.676 52.188 13.7 51.516C13.748 50.82 13.796 50.244 13.844 49.788V49.716C13.124 49.98 12.476 50.328 11.9 50.76C11.324 51.168 10.964 51.432 10.82 51.552C10.676 51.648 10.484 51.732 10.244 51.804C10.004 51.852 9.788 51.888 9.596 51.912C9.14 51.936 8.828 52.008 8.66 52.128C7.268 54.624 6.02 56.016 4.916 56.304C4.22 56.52 3.524 56.568 2.828 56.448C2.132 56.352 1.58 55.944 1.172 55.224C0.404 54.504 0.596 52.536 1.748 49.32C2.372 47.616 3.26 45.576 4.412 43.2C5.588 40.8 6.716 38.712 7.796 36.936C10.124 33.12 12.68 29.904 15.464 27.288C15.92 27.096 16.412 26.88 16.94 26.64C17.468 26.376 17.984 26.232 18.488 26.208C19.016 26.184 19.556 26.244 20.108 26.388C20.66 26.532 21.128 26.748 21.512 27.036C22.4 27.708 22.532 28.56 21.908 29.592ZM14.204 39.06C13.7 40.5 13.196 41.832 12.692 43.056C12.188 44.256 11.756 45.312 11.396 46.224L14.24 46.116C14.432 44.58 14.648 43.056 14.888 41.544C15.128 40.032 15.356 38.52 15.572 37.008L14.204 39.06ZM13.232 46.26C13.568 46.26 13.904 46.236 14.24 46.188V46.152C13.928 46.176 13.64 46.2 13.376 46.224C13.112 46.248 13.064 46.26 13.232 46.26ZM26.0643 39.096C26.4003 38.232 26.8683 37.584 27.4683 37.152C28.0923 36.696 28.6803 36.42 29.2323 36.324C29.8083 36.204 30.2763 36.264 30.6363 36.504C31.0203 36.744 31.1523 37.116 31.0323 37.62C31.4883 37.164 32.1483 36.744 33.0123 36.36C33.8763 35.976 34.5603 35.712 35.0643 35.568C35.5683 35.424 36.0003 35.352 36.3603 35.352C37.1523 35.4 37.3803 35.832 37.0443 36.648C37.4523 36.72 37.7523 36.984 37.9443 37.44C38.1363 37.896 38.1603 38.4 38.0163 38.952C37.8723 39.504 37.5483 40.044 37.0443 40.572C36.5403 41.1 35.8563 41.46 34.9923 41.652C34.1523 41.844 33.4443 42.288 32.8683 42.984C32.3163 43.656 31.8243 44.496 31.3923 45.504C30.6723 47.208 30.0243 49.62 29.4483 52.74C29.2563 53.868 28.4763 54.816 27.1083 55.584C25.8123 56.328 24.6243 56.544 23.5443 56.232C22.3203 55.896 21.7803 54.996 21.9243 53.532C21.9723 52.5 22.2843 51.132 22.8603 49.428C23.4363 47.7 23.8803 46.404 24.1923 45.54C24.5043 44.652 24.7203 43.98 24.8403 43.524L26.0643 39.096ZM46.3849 27.072L46.4209 26.928L46.7449 26.604C47.0089 25.98 47.2969 25.608 47.6089 25.488C47.7769 25.44 47.9929 25.38 48.2569 25.308C48.5209 25.236 48.8689 25.056 49.3009 24.768C49.4689 24.432 49.8169 24.288 50.3449 24.336C50.8729 24.36 51.3889 24.528 51.8929 24.84C52.4209 25.128 52.8409 25.536 53.1529 26.064C53.4889 26.592 53.5729 27.144 53.4049 27.72C53.2369 28.272 53.0929 28.692 52.9729 28.98C52.8769 29.244 52.7689 29.496 52.6489 29.736C52.5529 29.976 52.4209 30.252 52.2529 30.564C52.1089 30.852 51.9169 31.248 51.6769 31.752L50.4889 34.236C50.3689 34.548 50.2609 34.728 50.1649 34.776C50.0929 34.824 50.0209 34.908 49.9489 35.028C50.1649 34.98 50.3449 34.944 50.4889 34.92C50.6329 34.896 50.7769 34.872 50.9209 34.848C51.2569 34.8 51.6409 34.752 52.0729 34.704C52.3369 34.752 52.5649 34.776 52.7569 34.776H53.2609C53.5489 34.776 53.8969 34.86 54.3049 35.028C54.7129 35.172 54.9769 35.436 55.0969 35.82C55.2169 36.204 55.2289 36.6 55.1329 37.008C55.0369 37.392 54.8449 37.752 54.5569 38.088C54.2689 38.424 53.8969 38.604 53.4409 38.628C51.3529 39.204 49.8649 39.516 48.9769 39.564L48.7609 39.816V39.852C48.5209 40.428 48.2569 41.16 47.9689 42.048C47.7049 42.912 47.4049 43.86 47.0689 44.892C46.7569 45.9 46.4329 46.956 46.0969 48.06C45.7609 49.14 45.4129 50.184 45.0529 51.192C43.9009 54.576 43.0609 56.412 42.5329 56.7C42.3409 56.796 42.1369 56.856 41.9209 56.88C41.7289 56.928 41.6209 56.964 41.5969 56.988C40.7569 56.94 40.0609 56.772 39.5089 56.484C38.9569 56.196 38.5849 55.92 38.3929 55.656C38.2009 55.392 38.1529 55.092 38.2489 54.756C38.7049 50.58 39.6169 46.008 40.9849 41.04C40.5049 41.04 40.1689 41.088 39.9769 41.184C39.6169 41.376 39.1849 41.484 38.6809 41.508H38.6449C38.2609 41.484 37.9129 41.304 37.6009 40.968C37.2889 40.632 37.0969 40.248 37.0249 39.816C36.9529 39.384 37.0249 38.94 37.2409 38.484C37.4569 38.028 37.8889 37.668 38.5369 37.404C39.3049 37.188 39.8689 37.008 40.2289 36.864C40.9249 36.576 41.5009 36.372 41.9569 36.252C42.4369 36.132 42.7009 36.06 42.7489 36.036C42.8209 35.988 42.8689 35.952 42.8929 35.928C42.9649 35.88 43.1449 35.856 43.4329 35.856C43.5769 35.16 43.7209 34.452 43.8649 33.732C44.0089 33.012 44.1889 32.28 44.4049 31.536C44.8849 29.808 45.5449 28.32 46.3849 27.072Z" fill="white"/>
<path d="M165.604 46.152L163.876 50.544C163.636 51.216 163.42 51.912 163.228 52.632C163.036 53.352 162.832 53.976 162.616 54.504C162.4 55.056 162.064 55.488 161.608 55.8C161.176 56.112 160.684 56.34 160.132 56.484C159.58 56.652 159.004 56.724 158.404 56.7C157.828 56.676 157.312 56.568 156.856 56.376C155.824 55.896 155.464 55.104 155.776 54C156.88 49.152 157.912 45.264 158.872 42.336C159.856 39.408 160.66 37.104 161.284 35.424C161.932 33.744 162.604 31.968 163.3 30.096C163.372 29.4 163.66 28.776 164.164 28.224C164.668 27.672 165.256 27.216 165.928 26.856C166.624 26.496 167.344 26.244 168.088 26.1C168.832 25.932 169.492 25.908 170.068 26.028C170.644 26.148 171.064 26.412 171.328 26.82C171.616 27.228 171.64 27.816 171.4 28.584C170.536 30.792 169.924 32.352 169.564 33.264C169.204 34.176 168.88 34.992 168.592 35.712L167.584 38.088C168.088 38.112 168.724 38.04 169.492 37.872C170.884 37.56 171.892 37.452 172.516 37.548C172.516 37.428 172.576 37.224 172.696 36.936C173.368 34.008 174.124 31.32 174.964 28.872C175.564 26.856 177.112 25.8 179.608 25.704C180.592 25.704 181.336 25.944 181.84 26.424C182.392 26.928 182.464 27.612 182.056 28.476C179.848 34.668 178.288 39.552 177.376 43.128C176.344 47.256 175.66 50.04 175.324 51.48C175.012 52.92 174.736 53.772 174.496 54.036C174.256 54.3 174.004 54.48 173.74 54.576C173.5 54.696 173.26 54.804 173.02 54.9C172.78 54.996 172.588 55.236 172.444 55.62H172.336C172.144 56.052 171.724 56.388 171.076 56.628C170.428 56.868 169.768 56.952 169.096 56.88C168.448 56.832 167.896 56.592 167.44 56.16C167.008 55.752 166.9 55.116 167.116 54.252C167.356 52.884 167.752 51.42 168.304 49.86C168.856 48.276 169.288 47.04 169.6 46.152C169.936 45.264 170.212 44.436 170.428 43.668C170.236 43.764 170.044 43.836 169.852 43.884C169.684 43.932 169.468 44.028 169.204 44.172C168.94 44.292 168.664 44.4 168.376 44.496C168.112 44.592 167.848 44.688 167.584 44.784C166.912 45.048 166.36 45.312 165.928 45.576L165.604 46.152ZM169.672 43.74C169.696 43.74 169.816 43.704 170.032 43.632C169.888 43.68 169.768 43.716 169.672 43.74ZM183.204 38.628C183.708 38.268 184.332 38.184 185.076 38.376C185.22 38.4 185.364 38.412 185.508 38.412C186.036 37.332 186.948 36.768 188.244 36.72C188.58 36.696 189.048 36.636 189.648 36.54C190.248 36.444 190.968 36.468 191.808 36.612C192.672 36.756 193.428 37.008 194.076 37.368C195.492 38.136 196.344 39.24 196.632 40.68C197.208 42.792 197.124 45.096 196.38 47.592C195.588 50.352 194.244 52.56 192.348 54.216C191.484 54.984 190.572 55.464 189.612 55.656C188.652 55.872 187.788 55.992 187.02 56.016C186.252 56.04 185.544 56.04 184.896 56.016C184.272 56.016 183.66 55.956 183.06 55.836C181.764 55.572 180.696 54.96 179.856 54C178.872 52.92 178.452 51.24 178.596 48.96C178.692 46.944 179.196 44.916 180.108 42.876C181.044 40.812 182.076 39.396 183.204 38.628ZM189.54 45.864C188.94 46.056 188.376 46.14 187.848 46.116C187.584 46.38 187.344 46.668 187.128 46.98C186.936 47.268 186.672 47.544 186.336 47.808C186 48.048 185.832 48.144 185.832 48.096C185.424 48.672 185.088 49.272 184.824 49.896C184.56 50.496 184.56 51.108 184.824 51.732C185.784 51.828 186.492 51.804 186.948 51.66C187.404 51.516 187.824 51.24 188.208 50.832C188.616 50.424 188.928 49.944 189.144 49.392C189.576 48.36 189.708 47.184 189.54 45.864ZM201.723 38.196C202.395 37.548 203.139 37.176 203.955 37.08C204.795 36.96 205.527 37.044 206.151 37.332C206.799 37.62 207.267 38.088 207.555 38.736C207.867 39.36 207.831 40.08 207.447 40.896C206.631 42.096 205.983 43.392 205.503 44.784C205.023 46.176 204.579 47.58 204.171 48.996C206.379 47.604 208.227 45.528 209.715 42.768C210.147 41.952 210.615 41.124 211.119 40.284L211.659 39.276L212.739 37.548C212.883 37.092 213.135 36.804 213.495 36.684C213.855 36.54 214.239 36.468 214.647 36.468C215.079 36.468 215.511 36.48 215.943 36.504C216.375 36.504 216.771 36.384 217.131 36.144C217.491 35.904 217.911 35.82 218.391 35.892C218.895 35.94 219.339 36.096 219.723 36.36C220.131 36.624 220.431 36.948 220.623 37.332C220.839 37.692 220.863 38.052 220.695 38.412C219.687 40.572 218.307 44.592 216.555 50.472C216.147 51.792 215.763 52.896 215.403 53.784C214.803 54.528 214.047 55.032 213.135 55.296C212.223 55.56 211.359 55.632 210.543 55.512C209.751 55.416 209.115 55.14 208.635 54.684C208.155 54.252 208.047 53.7 208.311 53.028C207.639 53.58 206.943 54.084 206.223 54.54C205.503 54.996 204.627 55.296 203.595 55.44C202.587 55.584 201.615 55.536 200.679 55.296C199.743 55.08 198.939 54.648 198.267 54C197.619 53.352 197.271 52.488 197.223 51.408C197.079 47.616 198.579 43.212 201.723 38.196ZM231.907 54.864C230.971 55.632 229.855 56.208 228.559 56.592C227.287 57 226.003 57.216 224.707 57.24C223.411 57.264 222.199 57.108 221.071 56.772C219.943 56.436 219.055 55.908 218.407 55.188C217.639 54.372 217.375 53.556 217.615 52.74C217.735 52.404 217.951 52.14 218.263 51.948C218.551 51.756 218.911 51.708 219.343 51.804C219.631 51.828 219.835 51.756 219.955 51.588C220.099 51.396 220.219 51.192 220.315 50.976C220.411 50.736 220.519 50.52 220.639 50.328C220.759 50.112 220.951 50.004 221.215 50.004C225.439 50.124 227.635 49.752 227.803 48.888C227.515 48.624 227.155 48.396 226.723 48.204C226.315 48.012 225.895 47.82 225.463 47.628C224.407 47.148 223.699 46.62 223.339 46.044C222.883 45.804 222.535 45.228 222.295 44.316C222.175 43.908 222.115 43.488 222.115 43.056C222.115 42.624 222.187 42.228 222.331 41.868C222.259 40.932 222.835 39.9 224.059 38.772C224.395 38.46 224.815 38.124 225.319 37.764C225.823 37.404 226.579 37.056 227.587 36.72C228.595 36.384 229.591 36.144 230.575 36C231.583 35.832 232.483 35.772 233.275 35.82C234.091 35.868 234.667 36.06 235.003 36.396C235.363 36.732 235.639 37.152 235.831 37.656C236.047 38.16 236.119 38.652 236.047 39.132C235.855 40.212 234.967 40.956 233.383 41.364C231.391 41.652 230.431 41.916 230.503 42.156C230.503 42.204 230.419 42.264 230.251 42.336C232.099 43.608 233.383 44.856 234.103 46.08C235.087 47.76 235.231 49.632 234.535 51.696C234.655 52.368 234.055 53.208 232.735 54.216C232.423 54.456 232.147 54.672 231.907 54.864ZM249.65 48.672C249.194 48.888 248.75 49.056 248.318 49.176C247.886 49.296 247.382 49.416 246.806 49.536C245.294 49.848 244.202 50.028 243.53 50.076C243.602 50.316 243.962 50.604 244.61 50.94C245.042 51.012 245.51 50.952 246.014 50.76C246.542 50.544 247.082 50.352 247.634 50.184C248.21 49.992 248.762 49.884 249.29 49.86C249.842 49.836 250.358 50.04 250.838 50.472C251.03 50.904 251.186 51.156 251.306 51.228C251.426 51.3 251.534 51.336 251.63 51.336C251.726 51.336 251.834 51.372 251.954 51.444C252.074 51.516 252.242 51.792 252.458 52.272C252.698 52.752 252.638 53.208 252.278 53.64C251.942 54.072 251.414 54.444 250.694 54.756C249.974 55.068 249.134 55.32 248.174 55.512C247.214 55.704 246.254 55.836 245.294 55.908C243.134 56.076 241.49 55.908 240.362 55.404C238.73 54.852 237.674 53.76 237.194 52.128C236.57 49.968 236.918 47.448 238.238 44.568C238.838 43.224 239.786 41.784 241.082 40.248C242.21 38.904 243.47 37.932 244.862 37.332C246.47 36.636 248.15 36.312 249.902 36.36C251.774 36.408 253.07 37.224 253.79 38.808C254.15 39.648 254.222 40.824 254.006 42.336C253.622 44.304 253.118 45.696 252.494 46.512C251.87 47.304 250.922 48.024 249.65 48.672ZM247.562 42.984C246.29 42.72 245.294 43.44 244.574 45.144C244.358 45.6 244.19 46.08 244.07 46.584C244.886 46.68 245.75 46.224 246.662 45.216C246.998 44.808 247.25 44.4 247.418 43.992C247.586 43.56 247.634 43.224 247.562 42.984Z" fill="white"/>
</svg>
